<?xml version="1.0" encoding="utf-8"?>
<!-- Generator: Adobe Illustrator 20.1.0, SVG Export Plug-In . SVG Version: 6.00 Build 0)  -->
<svg version="1.1" id="Layer_1" xmlns="http://www.w3.org/2000/svg" xmlns:xlink="http://www.w3.org/1999/xlink" x="0px" y="0px"
	 viewBox="0 0 792 612" style="enable-background:new 0 0 792 612;" xml:space="preserve">
<style type="text/css">
	.st0{fill:none;stroke:#000000;stroke-miterlimit:10;}
</style>
<path class="st0" d="M-379.2-114.6v-57.2h13.2v14.7h139.3v-23.5h29.3l16.1,19.1l42.5-1.5v-105.5l114.4-1.5c0,0,48.4-7.3,52.8-8.8
	s10.3,10.3,10.3,10.3L0.6-236.2v27.9l38.1,33.7l35.2-32.3h58.6L131-69.1l39.6-1.5v-42.5l29.3,1.5v-24.9h-13.2l1.5-66h8.8l-2.9-68.9
	l45.4-14.7l1.5,55.7h-11.7v54.2H241v13.2l16.1,1.5v17.6h54.2v-8.8l70.4,20.5c0,0-42.5,180.3-156.9,302c0,0-33.7-46.9-77.7-39.6
	l-17.6-20.5l-11.7,5.9L89.9,59.9l-76.2,42.5L2,89.2l-29.3,22l5.9,16.1l-22,17.6l-22-27.9l-51.3,32.3l-14.7-14.7l-27.9,17.6
	l11.7,20.5l-13.2,5.9l42.5,70.4c0,0-88,44-151,39.6c0,0-13.2-99.7-49.8-145.1l48.4-24.9l8.8,10.3l30.8-13.2l-22-49.8l-26.4,14.7
	l-14.7-33.7c0,0,17.6-19.1-16.1-36.6l-8.8-16.1l11.7-51.3l8.8,1.5l5.9-38.1L-379.2-114.6z"/>
</svg>
